<svg width="125" height="23" viewBox="0 0 125 23" fill="none" xmlns="http://www.w3.org/2000/svg">
<path d="M6.216 22H0.84L10.216 0.559999H17.064L26.504 22H21L15.112 8.272L13.8 4.944H13.448L12.136 8.272L6.216 22ZM21.064 17.264H5.96V12.944H21.064V17.264ZM32.4238 22H27.6238V0.559999H32.4238V22ZM39.7363 22H34.9363V0.559999H39.7363V22ZM55.9223 22.32C53.6183 22.32 51.7623 21.9573 50.3543 21.232C48.9463 20.5067 47.9329 19.472 47.3143 18.128C46.6956 16.784 46.3863 15.1733 46.3863 13.296V12.368H51.4743V13.296C51.4743 14.3413 51.5809 15.184 51.7943 15.824C52.0076 16.464 52.4343 16.9333 53.0743 17.232C53.7143 17.5093 54.6636 17.648 55.9223 17.648C57.2023 17.648 58.1623 17.52 58.8023 17.264C59.4423 16.9867 59.8689 16.5387 60.0823 15.92C60.3169 15.3013 60.4343 14.5013 60.4343 13.52V0.559999H65.5223V13.52C65.5223 15.3547 65.2023 16.9333 64.5623 18.256C63.9436 19.5573 62.9303 20.56 61.5223 21.264C60.1143 21.968 58.2476 22.32 55.9223 22.32ZM76.4803 22.32C74.6669 22.32 73.0669 21.9787 71.6803 21.296C70.3149 20.6133 69.2483 19.6533 68.4803 18.416C67.7123 17.1573 67.3283 15.6853 67.3283 14C67.3283 12.2933 67.7123 10.8213 68.4803 9.584C69.2483 8.32533 70.3149 7.35467 71.6803 6.672C73.0669 5.98933 74.6669 5.648 76.4803 5.648C78.3149 5.648 79.9149 5.98933 81.2803 6.672C82.6456 7.35467 83.7123 8.32533 84.4803 9.584C85.2483 10.8213 85.6323 12.2933 85.6323 14C85.6323 15.6853 85.2483 17.1573 84.4803 18.416C83.7123 19.6533 82.6456 20.6133 81.2803 21.296C79.9149 21.9787 78.3149 22.32 76.4803 22.32ZM76.4803 18.064C78.1016 18.064 79.2323 17.744 79.8723 17.104C80.5336 16.4427 80.8643 15.408 80.8643 14C80.8643 12.5707 80.5336 11.5253 79.8723 10.864C79.2323 10.2027 78.1016 9.872 76.4803 9.872C74.8589 9.872 73.7176 10.2027 73.0563 10.864C72.4163 11.5253 72.0963 12.5707 72.0963 14C72.0963 15.408 72.4163 16.4427 73.0563 17.104C73.7176 17.744 74.8589 18.064 76.4803 18.064ZM98.7285 22.32C96.8725 22.32 95.4112 21.9253 94.3445 21.136C93.2992 20.3253 92.6272 19.1307 92.3285 17.552H91.4325L91.7845 14.096H92.3925C92.3925 15.0133 92.5632 15.76 92.9045 16.336C93.2672 16.8907 93.7898 17.296 94.4725 17.552C95.1765 17.808 96.0405 17.936 97.0645 17.936C98.1098 17.936 98.9632 17.808 99.6245 17.552C100.286 17.296 100.777 16.88 101.097 16.304C101.417 15.728 101.577 14.96 101.577 14C101.577 12.9973 101.417 12.2187 101.097 11.664C100.777 11.088 100.286 10.672 99.6245 10.416C98.9632 10.16 98.1205 10.032 97.0965 10.032C95.5392 10.032 94.3658 10.32 93.5765 10.896C92.7872 11.472 92.3925 12.4533 92.3925 13.84H91.7845V10.224H92.6485C92.9258 8.88 93.5658 7.78133 94.5685 6.928C95.5925 6.07467 97.0538 5.648 98.9525 5.648C100.553 5.648 101.907 5.98933 103.017 6.672C104.126 7.35467 104.969 8.32533 105.545 9.584C106.142 10.8213 106.441 12.2933 106.441 14C106.441 15.6853 106.142 17.1573 105.545 18.416C104.969 19.6533 104.105 20.6133 102.953 21.296C101.801 21.9787 100.393 22.32 98.7285 22.32ZM92.0405 22H87.5925V0.559999H92.3925V16.848L92.0405 17.264V22ZM116.532 22.32C113.844 22.32 111.775 21.8187 110.324 20.816C108.874 19.792 108.148 18.352 108.148 16.496V16.4H112.948V16.688C112.948 17.4133 113.204 17.904 113.716 18.16C114.25 18.3947 115.199 18.512 116.564 18.512C117.844 18.512 118.687 18.4053 119.092 18.192C119.519 17.9573 119.732 17.6053 119.732 17.136C119.732 16.688 119.572 16.3787 119.252 16.208C118.932 16.016 118.303 15.856 117.364 15.728L112.852 15.184C111.252 15.0133 110.015 14.5653 109.14 13.84C108.287 13.1147 107.86 12.0693 107.86 10.704C107.86 9.76533 108.138 8.92267 108.692 8.176C109.247 7.408 110.1 6.8 111.252 6.352C112.426 5.88267 113.93 5.648 115.764 5.648C117.514 5.648 118.996 5.872 120.212 6.32C121.45 6.74667 122.388 7.39733 123.028 8.272C123.668 9.14667 123.988 10.2347 123.988 11.536V11.632H119.188V11.44C119.188 10.992 119.092 10.6293 118.9 10.352C118.73 10.0533 118.378 9.82933 117.844 9.68C117.332 9.53067 116.586 9.456 115.604 9.456C114.41 9.456 113.61 9.57333 113.204 9.808C112.799 10.0213 112.596 10.384 112.596 10.896C112.596 11.3013 112.756 11.6107 113.076 11.824C113.418 12.016 114.111 12.1867 115.156 12.336L118.58 12.752C120.714 12.9867 122.228 13.4773 123.124 14.224C124.02 14.9707 124.468 16.0053 124.468 17.328C124.468 18.3307 124.148 19.2053 123.508 19.952C122.868 20.6987 121.962 21.2853 120.788 21.712C119.615 22.1173 118.196 22.32 116.532 22.32Z" fill="#646CFF"/>
</svg>
