<?xml version="1.0" encoding="utf-8"?>
<!-- Generator: Adobe Illustrator 27.5.0, SVG Export Plug-In . SVG Version: 6.00 Build 0)  -->
<svg version="1.1" xmlns="http://www.w3.org/2000/svg" xmlns:xlink="http://www.w3.org/1999/xlink" x="0px" y="0px"
	 viewBox="0 0 750 500" style="enable-background:new 0 0 750 500;" xml:space="preserve">
<g id="BACKGROUND">
	<rect style="fill:#E7EFF5;" width="750" height="500"/>
</g>
<g id="OBJECTS">
	<g>
		<g>
			
				<rect x="150.219" y="66.918" transform="matrix(-1.836970e-16 1 -1 -1.836970e-16 296.2926 -88.8149)" style="fill:#CEE5F5;" width="84.67" height="73.642"/>
			
				<rect x="155.683" y="72.235" transform="matrix(-1.836970e-16 1 -1 -1.836970e-16 296.2925 -88.8149)" style="fill:#FFFFFF;" width="73.741" height="63.008"/>
		</g>
		
			<rect x="163.742" y="80.077" transform="matrix(-1.836970e-16 1 -1 -1.836970e-16 296.2925 -88.8149)" style="fill:#E7EFF5;" width="57.623" height="47.324"/>
		<path style="fill:#FBCA8C;" d="M168.739,112.407l38.793-17.152c0,0,0.565,2.204,0,3.08c-0.565,0.876-9.378,6.386-10.849,7.308
			s14.628-3.552,15.395-3.022c0.767,0.53,2.3,11.062,1.789,11.705c-0.511,0.643-22.513,11.859-22.513,11.859
			s0.394,3.589,1.998,2.752s14.18-5.229,14.18-5.229s2.246,3.587,1.223,3.595c-1.022,0.009-11.578,5.405-11.578,5.405h-28.439
			V112.407z"/>
		<path style="fill:#D1D8EB;" d="M190.669,109.689c-0.495-0.423-16.215,9.355-17.188,9.633c-0.973,0.279-0.655,1.212-0.655,1.212
			s19.322-10.305,18.906-10.665C191.317,109.51,190.669,109.689,190.669,109.689z"/>
		<path style="fill:#DA6249;" d="M173.541,89.304c0,0,11.875,27.675,12.557,29.34c0.681,1.665,2.896,1.163,2.896,1.163
			l-3.748-11.264c0,0,1.769,0.507,2.077,0.971c0.308,0.464,2.084,7.093,2.729,7.631c0.645,0.537,8.652,0.099,9.334,0.231
			c0.681,0.132-18.059-39.229-18.059-39.229s-3.04,0.034-4.16,0c-1.121-0.034,0.753,3.594,0.753,3.594l-2.184,1.998l5.421,14.026
			c0,0-1.533,0.867-2.044,0.587c-0.511-0.28-4.763-9.51-5.323-9.922C173.23,88.019,173.541,89.304,173.541,89.304z"/>
		<path style="fill:#75BDB1;" d="M203.815,75.078c0,0-10.335,10.353-10.903,11.246c-0.568,0.893,0.795,1.477,1.249,1.477
			s6.02-4.207,6.02-4.207s1.367,0.991,2.16,0.965c0.793-0.026,9.766-6.412,9.766-6.412s0.909,2.733,0.568,3.217
			s-5.142,5.894-5.501,6.397c-0.359,0.503-0.121,0.857-0.121,0.857s5.849-4.679,6.417-5.024c0.568-0.345,0.116,0.451-0.114,0.965
			c0,0-13.366,14.615-13.952,15.115c-0.586,0.5,1.731,0.567,1.651,0.534c-0.079-0.034,12.556-8.7,12.556-8.7
			s0.178,1.761,0.358,2.902c0.12,0.759-2.957,6.475-2.957,6.475l5.051,3.644V75.084L203.815,75.078z"/>
		<path style="fill:#D1D8EB;" d="M171.787,132.517c0,0,11.925-5.57,12.437-5.738c0.511-0.168,0.511,2.207,0,2.158
			c-0.511-0.049-6.954,3.771-6.954,3.771L171.787,132.517z"/>
	</g>
	<g>
		
			<line style="fill:none;stroke:#382632;stroke-linecap:round;stroke-linejoin:round;stroke-miterlimit:10;" x1="89.576" y1="230.695" x2="146.274" y2="230.695"/>
		<path style="fill:#577B7D;" d="M99.456,91.971c-1.483-1.811-3.225-3.391-4.959-4.963c-5.993-5.434-12.127-10.959-19.532-14.215
			c0.415,3.708,0.829,7.415,1.244,11.123c0.296,2.65,0.853,5.707,3.199,6.977c1.512,0.818,3.515,0.702,4.735,1.913
			c1.535,1.524,1.075,4.442,2.822,5.718c1.727,1.261,4.13-0.049,6.262,0.118c2.395,0.187,4.169,2.2,5.806,3.96
			c2.412,2.592,6.222,4.787,5.864-0.152C104.65,99.031,101.542,94.519,99.456,91.971z"/>
		<polygon style="fill:#8C6F74;" points="110.839,140.315 93.833,149.672 128.19,149.672 145.196,140.315 		"/>
		<polygon style="fill:#8C6F74;" points="93.833,149.672 98.251,201.217 126.697,201.217 140.777,193.469 145.196,140.315 
			128.19,149.672 		"/>
		<polyline style="fill:none;stroke:#FFFFFF;stroke-linecap:round;stroke-linejoin:round;stroke-miterlimit:10;" points="
			93.833,149.672 128.19,149.672 145.196,140.315 		"/>
		
			<line style="fill:none;stroke:#FFFFFF;stroke-linecap:round;stroke-linejoin:round;stroke-miterlimit:10;" x1="128.19" y1="149.672" x2="126.697" y2="201.217"/>
		<polyline style="fill:none;stroke:#382632;stroke-linecap:round;stroke-linejoin:round;stroke-miterlimit:10;" points="
			85.918,264.931 95.724,171.733 142.584,171.733 149.953,264.931 		"/>
		
			<line style="fill:none;stroke:#382632;stroke-linecap:round;stroke-linejoin:round;stroke-miterlimit:10;" x1="127.551" y1="171.733" x2="135.621" y2="264.931"/>
		<path style="fill:#73A3A5;" d="M132.743,94.693c5.954-8.624,15.665-14.553,26.057-15.909c0.236,3.693-2.524,6.873-5.388,9.217
			c-2.864,2.344-6.147,4.486-7.702,7.844c-1.124,2.429-1.3,5.414-3.237,7.261c-2.194,2.092-6.059,2.08-7.669,4.65
			c-0.667,1.066-0.789,2.369-1.034,3.603c-0.508,2.564-2.649,9.266-5.209,10.53c-3.225,1.593-2.507-4.361-2.422-6.947
			C126.378,107.754,128.652,100.619,132.743,94.693z"/>
		<path style="fill:#73A3A5;" d="M114.933,91.789c-4.282-8.93-11.64-16.35-20.534-20.707c0.27,2.342-0.48,4.664-0.877,6.988
			c-0.398,2.324-0.362,4.955,1.183,6.736c1.578,1.82,4.48,2.451,5.359,4.693c0.681,1.737-0.181,3.745,0.297,5.548
			c1.181,4.454,8.7,3.907,10.63,8.091c0.498,1.079,0.52,2.305,0.63,3.487c0.301,3.258,1.355,6.428,3.011,9.246
			c2.723,4.635,4.065,3.817,4.515-1.237C119.837,106.866,118.299,98.809,114.933,91.789z"/>
		<path style="fill:#73A3A5;" d="M103.519,113.504c-1.7-2.028-3.816-3.665-5.999-5.16c-6.835-4.681-14.512-8.128-22.551-10.126
			c-0.405,2.196,0.428,4.578,2.113,6.043c1.401,1.218,3.352,1.865,4.314,3.452c1.136,1.875,0.505,4.465,1.729,6.284
			c2.477,3.679,9.216,0.55,12.257,3.778c1.352,1.436,1.491,3.732,2.902,5.11c0.883,0.862,2.125,1.225,3.313,1.558
			c3.956,1.108,7.959,3.881,6.781-1.532C107.668,119.647,105.659,116.033,103.519,113.504z"/>
		<path style="fill:#577B7D;" d="M119.669,95.775c-0.543-2.999-1.082-6.112-0.312-9.061c0.732-2.803,2.577-5.168,4.451-7.378
			c5.306-6.254,11.229-11.984,17.655-17.081c-0.603,2.166-0.1,4.462,0.051,6.705c0.151,2.243-0.196,4.783-1.968,6.167
			c-1.043,0.815-2.439,1.103-3.425,1.986c-3.302,2.96,0.533,9.319-2.456,12.594c-1.982,2.172-6.137,1.837-7.338,4.522
			c-0.741,1.657,0.117,3.648-0.419,5.382c-0.555,1.795-2.746,4.022-4.206,4.869C120.191,102.309,120.156,98.462,119.669,95.775z"/>
		<path style="fill:none;stroke:#382632;stroke-linecap:round;stroke-linejoin:round;stroke-miterlimit:10;" d="M93.308,110.087
			c0,0,13.759,10.094,16.891,18.273c3.132,8.179,4.525,16.185,4.525,16.185"/>
		<path style="fill:none;stroke:#382632;stroke-linecap:round;stroke-linejoin:round;stroke-miterlimit:10;" d="M127.603,83.393
			c-2.026,6.249-3.805,12.577-5.331,18.966c-0.642,2.689-1.241,5.396-1.555,8.143c-0.308,2.689-0.341,5.4-0.374,8.106
			c-0.102,8.353-0.204,16.705-0.307,25.058"/>
		<path style="fill:none;stroke:#382632;stroke-linecap:round;stroke-linejoin:round;stroke-miterlimit:10;" d="M134.499,100.039
			c-3.847,9.941-6.614,20.289-8.44,30.791c-0.816,4.694-1.445,9.42-1.886,14.164"/>
		<path style="fill:none;stroke:#382632;stroke-linecap:round;stroke-linejoin:round;stroke-miterlimit:10;" d="M112.786,96.767
			c1.152,5.083,2.162,10.198,3.028,15.337c1.807,10.72,2.991,21.571,2.911,32.442"/>
		<path style="fill:none;stroke:#382632;stroke-linecap:round;stroke-linejoin:round;stroke-miterlimit:10;" d="M98.973,97.529
			c0.28,0.826,0.741,1.576,1.198,2.318c3.18,5.164,6.359,10.327,9.539,15.491c2.247,3.65,4.528,7.378,5.532,11.545
			c0.557,2.31,0.705,4.696,0.851,7.068c0.225,3.638,0.449,7.277,0.673,10.915"/>
	</g>
	<g>
		<path style="fill:#FBCA8C;" d="M649.633,230.113c-20.039,0-75.249,0-85.473,0s-28.9-15.507-23.63-34.687
			c5.27-19.18,25.901-62.029,79.066-62.029C677.921,133.397,694.21,230.113,649.633,230.113z"/>
		<path style="fill:none;stroke:#FFFFFF;stroke-linecap:round;stroke-linejoin:round;stroke-miterlimit:10;" d="M553.919,198.95
			c31.707-10.755,67.112-10.238,98.491,1.438"/>
		<path style="fill:none;stroke:#FFFFFF;stroke-linecap:round;stroke-linejoin:round;stroke-miterlimit:10;" d="M627.427,147.469
			c6.802,3.964,10.774,12.285,9.578,20.066c-1.424,9.267-9.33,17.253-8.261,26.568"/>
		<path style="fill:none;stroke:#FFFFFF;stroke-linecap:round;stroke-linejoin:round;stroke-miterlimit:10;" d="M568.75,172.973
			c9.187,3.399,16.921,10.553,21.025,19.448c2.191-6.658,1.59-13.824-0.962-20.352"/>
	</g>
	<g>
		<polygon style="fill:#FFFAFF;" points="493.043,147.949 473.223,158.855 513.264,158.855 533.085,147.949 		"/>
		<polygon style="fill:#FFFAFF;" points="473.223,158.855 478.373,218.927 511.525,218.927 527.935,209.898 533.085,147.949 
			513.264,158.855 		"/>
		<polyline style="fill:none;stroke:#382632;stroke-linecap:round;stroke-linejoin:round;stroke-miterlimit:10;" points="
			473.223,158.855 513.264,158.855 533.085,147.949 		"/>
		
			<line style="fill:none;stroke:#382632;stroke-linecap:round;stroke-linejoin:round;stroke-miterlimit:10;" x1="513.264" y1="158.855" x2="511.525" y2="218.927"/>
		<g>
			<path style="fill:none;stroke:#382632;stroke-linecap:round;stroke-linejoin:round;stroke-miterlimit:10;" d="M492.651,79.302
				c0,0,10.503,23.51,8.542,71.15"/>
			<path style="fill:#577B7D;" d="M479.586,67.195c0.498,0.871-8.305,6.301-8.593,7.753c-0.288,1.452,1.671,3.358,1.671,3.358
				c0.969-1.851,5.829-4.668,5.829-4.668s-5.251,8.036-4.812,10.9c0.438,2.864,7.322,10.105,8.594,10.004
				c1.272-0.101,5.327-3.524,5.595-4.312c0.268-0.788-1.737-3.384-0.857-4.151c0.88-0.767,2.19,2.894,2.19,2.894
				c0.634-0.418,2.981-1.716,4.32-2.523s1.325-6.413,0.934-7.689c-0.391-1.277-7.646-5.201-7.469-6.026
				c0.177-0.825,8.369,4.595,9.086,6.227c0.717,1.632,0.468,6.012,0.468,6.012s3.39-2.896,4.442-4.938
				c1.052-2.042,0.109-12.276-1.688-13.669c-1.796-1.392-7.568-3.036-7.568-3.036s-4.202-4.822-6.401-5.031
				c-2.198-0.21-12.022,6.825-12.741,8.329c-0.718,1.504-0.305,4.519-0.305,4.519C473.857,70.148,479.089,66.323,479.586,67.195z
				 M496.011,68.875c0.594-0.8,4.493,7.074,3.335,7.564C498.189,76.929,495.121,70.074,496.011,68.875z M489.366,79.779
				c1.187-0.083,1.695,2.296,0.97,3.213c-0.725,0.917-2.022-0.526-2.542-1.02C487.274,81.479,488.097,79.868,489.366,79.779z
				 M476.598,82.124c0,0,3.383-8.624,5.69-6.964C483.568,76.081,477.977,79.691,476.598,82.124z"/>
			<path style="fill:none;stroke:#382632;stroke-linecap:round;stroke-linejoin:round;stroke-miterlimit:10;" d="M486.537,97.714
				c0,0,10.151,11.565,11.84,27.974c1.528,14.844-0.154,29.214-0.154,29.214"/>
			<path style="fill:none;stroke:#382632;stroke-linecap:round;stroke-linejoin:round;stroke-miterlimit:10;" d="M535.129,100.183
				c0,0-20.785,6.537-23.929,56.908"/>
			<path style="fill:#577B7D;" d="M544.334,101.148c1.379,0.701,7.646,15.808,7.646,15.808s1.836-3.225,1.593-5.772
				c-0.244-2.547-3.7-23.019-6.597-24.116c-2.897-1.097-9.372,2.749-9.372,2.749s-4.946-7.788-8.667-6.749
				c-3.721,1.038-11.884,12.163-11.863,16.824c0.02,4.66,5.126,16.802,5.126,16.802s1.626-4.871,3.618-7.951
				c1.992-3.08,7.627-5.241,7.671-4.04c0.044,1.201-10.292,10.451-9.91,12.692c0.383,2.241,9.2,8.985,8.448,13.072
				c0,0,10.339-0.98,11.663-1.781c0,0-2.236-11.796-2.931-14.327c-0.694-2.531,3.701,6.631,3.923,8.577l1.179-0.645
				c0,0-3.465-12.503-4.727-14.111c-1.262-1.608,1.302-1.401,2.58,0.657c1.278,2.058,4.687,17.119,4.687,17.119l2.487-1.895
				c0,0-4.145-14.654-6.818-17.829C541.396,103.06,542.955,100.447,544.334,101.148z M544.82,94.928
				c3.734-2.73,5.101,9.962,5.101,9.962C549.447,101.186,543.599,95.82,544.82,94.928z M521.426,103.791
				c0,0,2.093-4.437,5.052-5.748c2.959-1.311,5.828-0.965,5.728,0.392C532.105,99.792,527.545,98.455,521.426,103.791z
				 M528.118,119.221c-0.778,0.938,3.82-9.612,5.663-8.552C535.625,111.729,530.818,115.965,528.118,119.221z"/>
			<path style="fill:#75BDB1;" d="M492.222,90.324c-1.655-0.509-4.711,0.509-4.711,0.509s2.292-3.947-0.509-5.22
				c-2.801-1.273-15.279-7.512-15.279-7.512s-5.857,3.947-8.53,4.838c0,0,19.607,6.239,18.461,7.894
				c-1.146,1.655-17.188,3.692-19.735,6.621c0,0,1.783,11.077,6.366,13.751c0,0,3.939-8.658,6.871-10.44
				c2.932-1.783,4.588-0.764,3.187,0.509c-1.4,1.273-8.785,10.95-8.785,10.95s4.583,5.475,7.894,6.366c0,0,4.901-0.457,9.647-2.121
				c0,0,1.253-10.324,2.066-12.393c1.4-3.565,2.17,10.527,2.17,10.527c5.347-3.82,12.726-15.493,12.726-15.493
				S493.877,90.833,492.222,90.324z M480.509,96.371c-0.668,1.146-3.533-0.668-5.252,0.095c-1.719,0.764-6.589,2.674-8.212,4.488
				c0,0,4.011-4.488,7.257-5.92C477.548,93.602,481.177,95.225,480.509,96.371z M496.424,105.475
				c-1.019,0.509-3.269-7.215-2.419-7.13C495.278,98.472,497.442,104.965,496.424,105.475z"/>
			<path style="fill:none;stroke:#382632;stroke-linecap:round;stroke-linejoin:round;stroke-miterlimit:10;" d="M516.165,78.885
				c-5.719,7.468-9.092,16.529-10.886,25.763c-1.794,9.234-2.078,18.691-2.12,28.097c-0.036,8.117,0.103,16.235,0.419,24.347"/>
			<path style="fill:#75BDB1;" d="M531.968,70.686c-1.819-1.843-7.138-0.597-8.409-2.254c-1.271-1.657,6.019-1.864,6.019-1.864
				s-4.069-4.935-7.801-5.473c-3.732-0.538-6.167,9.464-6.167,9.464s-8.024-3.352-11.754-3.368
				c-3.729-0.016-6.101,9.454-6.417,12.895c-0.316,3.441,5.094,10.546,5.094,10.546s1.609-3.535,2.368-5.639
				c0.759-2.104,4.656-4.202,5.565-3.281c0.91,0.922-1.49,2.498-3.021,4.695c-1.531,2.197-2.861,3.944-2.634,5.613
				c0.227,1.669,5.975,7.422,5.975,7.422s2.02-6.286,2.72-6.904c0.7-0.618-0.516,7.741-0.516,7.741s7.836,3.809,10.146,3.495
				c2.31-0.314,8.732-6.901,8.433-9.1c-0.299-2.199-0.531-5.827-2.886-9.688c-2.355-3.862,3.842,3.266,3.842,3.266
				s-1.388-4.441-0.702-5.159c0.686-0.718,3.425,5.966,3.425,5.966s1.161-4.919,1.451-6.629
				C536.991,80.719,533.787,72.53,531.968,70.686z M510.157,94.083c0,0,0.172-5.878,2.021-6.335
				C514.027,87.291,511.415,91.219,510.157,94.083z M529.898,93.706c0,0-4.075-5.095-2.75-6.095
				C528.89,86.296,529.898,93.706,529.898,93.706z M526.357,72.429c-1.745,0.139-3.49-1.878-2.116-1.868
				C525.614,70.57,528.102,72.29,526.357,72.429z"/>
		</g>
	</g>
	<g>
		<g>
			<polygon style="fill:#382632;" points="144.885,191.679 217.654,149.745 217.654,155.767 144.885,197.701 			"/>
			<polygon style="fill:#382632;" points="144.885,282.69 217.654,240.755 217.654,246.777 144.885,288.712 			"/>
			
				<line style="fill:none;stroke:#382632;stroke-linecap:round;stroke-linejoin:round;stroke-miterlimit:10;" x1="213.958" y1="155.288" x2="148.581" y2="285.017"/>
			
				<line style="fill:none;stroke:#382632;stroke-linecap:round;stroke-linejoin:round;stroke-miterlimit:10;" x1="215.806" y1="244.93" x2="147.657" y2="193.527"/>
		</g>
		<polygon style="fill:#8C6F74;" points="127.838,188.313 127.838,196.109 373.915,196.109 460.163,146.407 460.163,138.611 		"/>
		<polygon style="fill:#8C6F74;" points="214.086,138.611 127.838,188.313 373.915,188.313 460.163,138.611 		"/>
		<polyline style="fill:none;stroke:#FFFFFF;stroke-linecap:round;stroke-linejoin:round;stroke-miterlimit:10;" points="
			127.838,188.313 373.915,188.313 460.163,138.611 		"/>
		<g>
			<polygon style="fill:#382632;" points="381.598,191.679 454.367,149.745 454.367,155.767 381.598,197.701 			"/>
			<polygon style="fill:#382632;" points="381.598,282.69 454.367,240.755 454.367,246.777 381.598,288.712 			"/>
			
				<line style="fill:none;stroke:#382632;stroke-linecap:round;stroke-linejoin:round;stroke-miterlimit:10;" x1="450.671" y1="155.288" x2="385.294" y2="285.017"/>
			
				<line style="fill:none;stroke:#382632;stroke-linecap:round;stroke-linejoin:round;stroke-miterlimit:10;" x1="384.37" y1="193.527" x2="452.519" y2="244.93"/>
		</g>
	</g>
	<g>
		<polygon style="fill:#382632;" points="288.626,149.092 204.106,149.092 212.083,94.62 296.604,94.62 		"/>
		<polygon style="fill:#382632;" points="254.711,170.183 208.298,170.183 223.566,159.178 269.979,159.178 		"/>
		<polygon style="fill:#FFFFFF;" points="287.205,149.092 202.684,149.092 210.662,94.62 295.182,94.62 		"/>
		<polygon style="fill:#514350;" points="285.511,147.262 204.65,147.262 212.492,96.45 293.353,96.45 		"/>
		<polygon style="fill:#FFFFFF;" points="249.179,149.092 247.564,154.777 239.096,154.777 240.71,149.092 237.893,149.092 
			232.25,164.476 246.353,164.476 251.996,149.092 		"/>
		<polygon style="fill:#382632;" points="240.268,150.649 237.322,150.649 237.893,149.092 240.71,149.092 		"/>
		<polygon style="fill:#382632;" points="251.425,150.649 248.737,150.649 249.179,149.092 251.996,149.092 		"/>
	</g>
	<g>
		<polygon style="fill:#382632;" points="403.139,149.092 318.618,149.092 326.596,94.62 411.117,94.62 		"/>
		<polygon style="fill:#382632;" points="369.223,170.183 322.811,170.183 338.079,159.178 384.491,159.178 		"/>
		<polygon style="fill:#FFFFFF;" points="401.717,149.092 317.197,149.092 325.175,94.62 409.695,94.62 		"/>
		<polygon style="fill:#514350;" points="400.024,147.262 319.163,147.262 327.005,96.45 407.865,96.45 		"/>
		<polygon style="fill:#FFFFFF;" points="363.691,149.092 362.077,154.777 353.609,154.777 355.223,149.092 352.406,149.092 
			346.763,164.476 360.866,164.476 366.509,149.092 		"/>
		<polygon style="fill:#382632;" points="354.781,150.649 351.835,150.649 352.406,149.092 355.223,149.092 		"/>
		<polygon style="fill:#382632;" points="365.938,150.649 363.249,150.649 363.691,149.092 366.509,149.092 		"/>
	</g>
	<g>
		<g>
			<path style="fill:none;stroke:#1E1609;stroke-linecap:round;stroke-linejoin:round;stroke-miterlimit:10;" d="M110.88,299.251
				c0,0,21.389-63.491,25.216-63.932s41.652,0,41.652,0"/>
			<path style="fill:none;stroke:#1E1609;stroke-linecap:round;stroke-linejoin:round;stroke-miterlimit:10;" d="M182.026,311.184
				c0,0-5.588-73.238-4.278-75.864c2.251-4.513,24.554-9.765,29.044-8.189c4.36,1.531,16.661,63.115,16.661,63.115"/>
			<path style="fill:#939CBB;" d="M170.093,212.57c0,0,6.723-0.381,11.708,0c15.27,1.167,30.645,4.16,30.395,9.231
				c-0.293,5.941-21.398,13.13-28.995,13.13c-6.48,0-31.337,0.197-38.886-0.734c-6.495-0.801-9.569-3.39-15.422-9.694
				c-5.854-6.304-13.058-59.213-11.933-64.392c1.126-5.178,11.257-5.629,16.661-5.178c5.404,0.45,20.859,4.278,27.766,15.085
				C168.292,180.824,177.748,200.637,170.093,212.57z"/>
			<path style="fill:none;stroke:#FFFFFF;stroke-linecap:round;stroke-linejoin:round;stroke-miterlimit:10;" d="M170.093,212.57
				c0,0-6.519,15.828,7.655,17.159c14.174,1.331,27.117-4.556,32.764-10.788"/>
		</g>
		<path style="fill:#939CBB;" d="M173.776,230.081c0,0-21.913,5.046-29.462,4.115c-6.495-0.801-9.569-3.39-15.422-9.694
			c-5.854-6.304-13.058-59.213-11.933-64.392c1.126-5.178,11.257-5.629,16.661-5.178c5.404,0.45,20.859,4.278,27.766,15.085
			C168.292,180.824,184.236,216.612,173.776,230.081z"/>
	</g>
	<g>
		<g>
			<path style="fill:none;stroke:#1E1609;stroke-linecap:round;stroke-linejoin:round;stroke-miterlimit:10;" d="M249.184,299.251
				c0,0,21.389-63.491,25.216-63.932c3.828-0.441,41.652,0,41.652,0"/>
			<path style="fill:none;stroke:#1E1609;stroke-linecap:round;stroke-linejoin:round;stroke-miterlimit:10;" d="M320.33,311.184
				c0,0-5.588-73.238-4.278-75.864c2.251-4.513,24.554-9.765,29.044-8.189c4.36,1.531,16.661,63.115,16.661,63.115"/>
			<path style="fill:#939CBB;" d="M308.397,212.57c0,0,6.723-0.381,11.708,0c15.27,1.167,30.645,4.16,30.395,9.231
				c-0.293,5.941-21.398,13.13-28.995,13.13c-6.479,0-31.337,0.197-38.886-0.734c-6.496-0.801-9.569-3.39-15.423-9.694
				c-5.854-6.304-13.058-59.213-11.933-64.392c1.126-5.178,11.257-5.629,16.661-5.178c5.404,0.45,20.859,4.278,27.766,15.085
				C306.596,180.824,316.052,200.637,308.397,212.57z"/>
			<path style="fill:none;stroke:#FFFFFF;stroke-linecap:round;stroke-linejoin:round;stroke-miterlimit:10;" d="M308.397,212.57
				c0,0-6.519,15.828,7.655,17.159c14.174,1.331,27.117-4.556,32.764-10.788"/>
		</g>
		<path style="fill:#939CBB;" d="M312.08,230.081c0,0-21.913,5.046-29.462,4.115c-6.496-0.801-9.569-3.39-15.423-9.694
			c-5.854-6.304-13.058-59.213-11.933-64.392c1.126-5.178,11.257-5.629,16.661-5.178c5.404,0.45,20.859,4.278,27.766,15.085
			C306.596,180.824,322.54,216.612,312.08,230.081z"/>
	</g>
	<g>
		<path style="fill:#FF848E;" d="M268.42,403.392c0,0-11.465,22.02-10.278,28.018l-19.008-7.914l11.078-27.685L268.42,403.392z"/>
		<path style="fill:#363039;" d="M296.571,334.467c6.087,9.057-29.246,79.817-29.246,79.817l-29.224-8.974l36.016-81.182
			C274.116,324.127,288.003,321.717,296.571,334.467z"/>
		
			<line style="fill:none;stroke:#FFFFFF;stroke-linecap:round;stroke-linejoin:round;stroke-miterlimit:10;" x1="242.445" y1="395.517" x2="271.96" y2="404.356"/>
		<g>
			<path style="fill:#FFFAFF;" d="M260.451,430.829c0,0,6.997,7.027,12.482,10.037c5.757,3.159,3.617,8.307,2.449,10.02
				l-40.996-17.069l5.342-11.617l12.627,5.257c0,0,0.139-4.659,0.337-5.165c0.197-0.506,8.524,3.404,9.228,3.932
				C262.625,426.755,260.451,430.829,260.451,430.829z"/>
			<polygon style="fill:#7E98BA;" points="275.383,450.887 234.387,433.818 232.83,438.103 273.826,455.171 			"/>
			<path style="fill:none;stroke:#1E1609;stroke-linecap:round;stroke-linejoin:round;stroke-miterlimit:10;" d="M270.352,439.249
				c0,0-7.158,1.427-8.948,5.818"/>
		</g>
		<path style="fill:none;stroke:#1E1609;stroke-linecap:round;stroke-linejoin:round;stroke-miterlimit:10;" d="M252.356,427.459
			c0,0,1.905,7.05,12.18,14.14"/>
	</g>
	<g>
		<path style="fill:none;stroke:#1E1609;stroke-linecap:round;stroke-linejoin:round;stroke-miterlimit:10;" d="M561.406,376.195
			c0,0-29.67-88.072-34.979-88.683c-5.309-0.611-57.778,0-57.778,0"/>
		<path style="fill:none;stroke:#1E1609;stroke-linecap:round;stroke-linejoin:round;stroke-miterlimit:10;" d="M462.716,392.748
			c0,0,7.752-101.592,5.934-105.236c-3.123-6.26-34.06-13.545-40.288-11.359c-6.048,2.123-23.111,87.55-23.111,87.55"/>
		<path style="fill:#939CBB;" d="M479.268,255.955c0,0-9.326-0.528-16.24,0c-21.181,1.619-42.509,5.77-42.162,12.805
			c0.406,8.241,29.683,18.213,40.221,18.213c8.988,0,43.47,0.274,53.941-1.018c9.01-1.111,13.273-4.702,21.393-13.447
			c8.12-8.745,18.114-82.138,16.553-89.321c-1.562-7.183-15.616-7.808-23.111-7.183c-7.495,0.625-28.934,5.934-38.515,20.925
			C481.767,211.919,468.65,239.403,479.268,255.955z"/>
		<path style="fill:none;stroke:#FFFFFF;stroke-linecap:round;stroke-linejoin:round;stroke-miterlimit:10;" d="M549.464,181.755
			c0,0-10.059,8.172-15.328,23.554c-5.269,15.382-15.546,58.183,2.286,67.199"/>
		<path style="fill:none;stroke:#FFFFFF;stroke-linecap:round;stroke-linejoin:round;stroke-miterlimit:10;" d="M461.087,286.973
			c0,0-4.496-8.353,12.694-8.802c20.358-0.531,42.28-7.227,47.901-9.101c6.467-2.156,11.271,0.939,11.271,0.939"/>
	</g>
	<g>
		<path style="fill:#1E1609;" d="M416.418,265.07c-1.559,0.195-4.261,3.068-4.261,6.477l13.465-5.113
			C425.622,266.434,421.872,264.388,416.418,265.07z"/>
		<path style="fill:#FFFAFF;" d="M437.453,378c0,0-7.023,9.747-6.759,12.618c0.265,2.871,11.426,2.673,19.644,0.398
			c8.218-2.276,15.024-16.231,15.024-16.231l3.484,6.01l5.735-3.647c0,0-4.512-18.385-9.534-17.069L437.453,378z"/>
		<path style="fill:#FF848E;" d="M451.57,269.483c0,0-26.897,9.116-32.065,12.353c-5.169,3.237,23.756,81.449,24.054,82.274
			c0.489,1.353-5.22,14.752-6.105,13.891c0,0,5.807,0.704,12.218-0.489c6.411-1.193,15.376-17.432,15.376-17.432l-19.527-55.12
			c0,0,21.425-6.103,29.061-9.202C474.581,295.757,465.227,269.651,451.57,269.483z"/>
		<polygon style="fill:#1E1609;" points="433.464,288.915 455.742,275.001 463.68,276.784 		"/>
		<path style="fill:#FFFAFF;" d="M461.881,376.38c0,0-1.439,11.928,0.18,14.313c1.619,2.386,11.295-3.181,17.391-9.145
			c6.095-5.964,5.31-21.47,5.31-21.47l5.954,3.578l3.259-5.964c0,0-12.835-13.916-16.595-10.337L461.881,376.38z"/>
		<path style="fill:#FF848E;" d="M460.64,353.393c0,0-67.333-66.288-62.164-73.842c5.169-7.554,25.446-13.6,25.446-13.6
			c12.325-1.673,31.821,9.051,31.821,9.051l-22.279,13.914l43.917,58.441c0,0,1.948,19.879-1.701,23.06
			c-3.649,3.181-13.798,5.964-13.798,5.964L460.64,353.393z"/>
		<path style="fill:#FBCA8C;" d="M444.558,197.768c1.214-6.081,2.931-12.195,6.404-17.333c2.351-3.478,5.429-6.392,8.137-9.6
			c0.042-0.05,0.081-0.102,0.123-0.152c-0.136-0.197-0.288-0.38-0.475-0.535c-1.851-1.533-4.052-2.58-6.002-3.985
			c-5.297-3.819-8.479-10.4-8.182-16.923c0.124-2.715,1.031-5.697,3.409-7.013c1.339-0.741,2.933-0.83,4.462-0.822
			c3.831,0.021,7.659,0.554,11.35,1.579c1.9,0.528,3.825,1.193,5.79,1.029c2.699-0.225,5.169-1.995,7.871-1.818
			c2.311,0.152,4.323,1.743,5.624,3.659c1.301,1.916,2.025,4.153,2.846,6.319c2.238,5.907,5.422,13.306,9.206,18.364
			c0,0-0.012,0.013-0.019,0.021c1.433,1.668,2.72,3.246,3.759,4.516c3.64,4.449,7.345,9.172,8.504,14.802
			c0.848,4.118,0.231,8.418-0.973,12.446c-2.834,9.481-9.071,17.998-17.534,23.126c-8.463,5.129-19.117,6.697-28.56,3.742
			c-6.601-2.066-12.73-6.559-15.338-12.965C442.604,210.44,443.335,203.892,444.558,197.768z"/>
		<path style="fill:#FF848E;" d="M463.959,183.582c0,0-4.574,12.84-5.231,16.411c-0.657,3.571-0.849,7.923-0.849,7.923
			s27.724,0.873,27.174,0.309s-1.767-18.246-3.083-20.489c-1.316-2.243-2.737-4.588-2.737-4.588L463.959,183.582z"/>
		
			<line style="fill:none;stroke:#382632;stroke-linecap:round;stroke-linejoin:round;stroke-miterlimit:10;" x1="470.889" y1="197.938" x2="469.899" y2="205.463"/>
		<g>
			<g>
				<path style="fill:#FF848E;" d="M454.529,163.481c0.029,0.904,0.116,1.799,0.271,2.686c0.257,1.485,0.698,2.934,1.324,4.263
					c1.637,3.501,4.53,6.193,8.63,6.74c4.502,0.602,8.915-1.899,11.452-5.699c4.599-6.868,5.929-20.038-2.069-24.825
					c-0.892-0.537-1.816-0.902-2.762-1.124c-4.454-1.034-9.228,1.259-12.336,4.787C455.929,153.838,454.397,158.714,454.529,163.481
					z"/>
			</g>
		</g>
		<g>
			<g>
				<path style="fill:#FF848E;" d="M478.699,163.647l0.494,22.186c0.154,4.096-2.879,7.598-6.921,7.993l0,0
					c-4.669,0.455-8.655-3.383-8.422-8.11l0.876-20.706L478.699,163.647z"/>
			</g>
		</g>
		<g>
			<g>
				<g>
					<path style="fill:#382632;" d="M463.85,185.715l0.347-8.206c0,0,6.179-0.163,11.213-5.707
						C475.41,171.802,474.777,184.999,463.85,185.715z"/>
				</g>
			</g>
		</g>
		<g>
			<g>
				<path style="fill:#FF848E;" d="M477.531,167.286c1.407,0.873,3.509,0.873,4.919-0.018c1.41-0.891,2.337-2.628,2.346-4.396
					c0.008-1.586-0.77-3.208-2.089-3.872c-1.319-0.665-3.295-0.15-3.963,1.265L477.531,167.286z"/>
			</g>
		</g>
		<g>
			<path style="fill:#382632;" d="M464.194,162.936c-0.02,0.527,0.39,0.97,0.917,0.99c0.527,0.02,0.97-0.39,0.99-0.917
				c0.02-0.527-0.39-0.97-0.917-0.99C464.658,161.998,464.214,162.409,464.194,162.936z"/>
		</g>
		<g>
			<path style="fill:#382632;" d="M458.394,162.712c-0.02,0.527,0.39,0.97,0.917,0.99c0.527,0.02,0.97-0.39,0.99-0.917
				c0.02-0.527-0.39-0.97-0.917-0.99C458.858,161.775,458.415,162.185,458.394,162.712z"/>
		</g>
		<g>
			<path style="fill:#FBCA8C;" d="M467.122,160.254c0.152,0.006,0.3-0.073,0.376-0.216c0.106-0.199,0.031-0.447-0.168-0.553
				c-0.799-0.427-1.737-0.624-2.64-0.553c-0.225,0.017-0.393,0.214-0.376,0.439c0.018,0.225,0.216,0.393,0.439,0.376
				c0.747-0.059,1.528,0.105,2.191,0.459C467.002,160.236,467.063,160.251,467.122,160.254z"/>
		</g>
		<g>
			<path style="fill:#FBCA8C;" d="M458.079,159.862c0.049,0.002,0.099-0.005,0.147-0.021c0.692-0.234,1.438-0.293,2.156-0.17
				c0.213,0.037,0.433-0.111,0.471-0.334c0.037-0.223-0.112-0.434-0.335-0.471c-0.851-0.146-1.737-0.076-2.555,0.201
				c-0.214,0.072-0.328,0.304-0.255,0.518C457.764,159.75,457.915,159.856,458.079,159.862z"/>
		</g>
		<path style="fill:none;stroke:#382632;stroke-linecap:round;stroke-linejoin:round;stroke-miterlimit:10;" d="M461.401,166.433
			c0,0-1.601-0.041-1.71,1.108c-0.109,1.15,1.662,1.242,1.662,1.242"/>
		<path style="fill:none;stroke:#382632;stroke-linecap:round;stroke-linejoin:round;stroke-miterlimit:10;" d="M479.884,165.24
			c1.604-0.426,2.639-1.774,2.311-3.011c-0.246-0.928-1.19-1.529-2.322-1.593"/>
		<path style="fill:#F2727C;" d="M465.752,167.722c-0.185,1.289,1.181,2.552,3.05,2.819c1.869,0.268,3.534-0.561,3.719-1.85
			c0.185-1.289-1.181-2.552-3.05-2.819C467.602,165.604,465.937,166.433,465.752,167.722z"/>
		<path style="fill:#F2727C;" d="M454.799,166.167c0.257,1.485,0.698,2.934,1.324,4.263c1.166-0.639,1.831-1.691,1.592-2.666
			C457.458,166.731,456.241,166.11,454.799,166.167z"/>
		<path style="fill:none;stroke:#382632;stroke-linecap:round;stroke-linejoin:round;stroke-miterlimit:10;" d="M460.491,172.022
			c0,0,2.126,3.499,5.547-0.444"/>
		<path style="fill:#FBCA8C;" d="M479.964,159.058c0,0-6.813,1.767-8.041-1.048c-1.228-2.815,0.523-7.206,0.523-7.206
			s-12.143,6.725-18.375,3.753c-6.232-2.973,11.932-12.72,20.474-9.641C483.087,147.995,481.185,157.851,479.964,159.058z"/>
		<path style="fill:#FFFAFF;" d="M447.942,251.558c6.197-10.477-0.296-49.637-0.296-49.637l49.461,1.581
			c0,0,6.899,35.357,10.651,55.475c5.305,28.444-36.238,37.93-36.238,37.93s-5.602-12.25-12.424-18.159
			c-6.821-5.909-42.678-13.678-42.678-13.678S446.293,254.346,447.942,251.558z"/>
		<path style="fill:#89534F;" d="M463.85,185.715c0,0-3.841,8.426-3.309,14.299c0.29,3.205,10.687,21.809,10.687,21.809
			l-0.036,3.154c0,0-15.436,22.978-23.133,23.12l-0.035-15.993l-12.069,10.596l-15.476-19.212c0,0,16.143-24.966,21.628-31.953
			C446.834,185.514,463.85,185.715,463.85,185.715z"/>
		<path style="fill:#89534F;" d="M479.193,185.833c0,0,3.767,8.57,3.101,14.429c-0.363,3.197-11.066,21.562-11.066,21.562
			l-0.036,3.154c0,0,21.868,23.158,35.623,22.212L504.171,235l17.639-10.357c0,0-14.523-25.688-18.793-33.477
			C500.19,186.008,479.193,185.833,479.193,185.833z"/>
		<path style="fill:#89534F;" d="M464.036,182.071c0,0-2.216-0.025-3.296,0.487c-1.073,0.51-6.293,10.029-6.25,10.738
			c0.044,0.709,4.653,2.281,4.653,2.281l4.707-9.862L464.036,182.071z"/>
		<path style="fill:none;stroke:#382632;stroke-linecap:round;stroke-linejoin:round;stroke-miterlimit:10;" d="M458.843,185.658
			c0,0-4.338,8.386-4.69,9.476c-0.352,1.09,6.389,4.88,6.389,4.88"/>
		<path style="fill:#89534F;" d="M479.113,182.243c0,0,2.585,0.427,3.794,0.947c1.209,0.52,4.65,9.607,4.635,10.854
			c-0.014,1.248-4.666,0.689-4.666,0.689l-3.684-8.901L479.113,182.243z"/>
		<path style="fill:none;stroke:#382632;stroke-linecap:round;stroke-linejoin:round;stroke-miterlimit:10;" d="M484.53,186.198
			c0,0,4.81,10.128,5.1,11.346c0.29,1.218-3.665,1.749-7.336,2.717"/>
		<path style="fill:none;stroke:#382632;stroke-linecap:round;stroke-linejoin:round;stroke-miterlimit:10;" d="M447.942,208.05
			c0,0,0.055,12.623,0.079,22.373c0.001,0.572,0.003,1.133,0.004,1.682"/>
		<path style="fill:none;stroke:#382632;stroke-linecap:round;stroke-linejoin:round;stroke-miterlimit:10;" d="M498.416,209.248
			c0,0,3.924,17.311,5.755,25.752"/>
		
			<line style="fill:none;stroke:#382632;stroke-linecap:round;stroke-linejoin:round;stroke-miterlimit:10;" x1="424.165" y1="217.831" x2="441.985" y2="237.408"/>
		
			<line style="fill:none;stroke:#382632;stroke-linecap:round;stroke-linejoin:round;stroke-miterlimit:10;" x1="502.718" y1="228.413" x2="518.571" y2="218.907"/>
		
			<line style="fill:none;stroke:#1E1609;stroke-linecap:round;stroke-linejoin:round;stroke-miterlimit:10;" x1="445.52" y1="304.96" x2="430.687" y2="285.523"/>
		<polygon style="fill:#1E1609;" points="428.318,320.058 432.867,335.826 460.64,353.393 		"/>
		<path style="fill:none;stroke:#1E1609;stroke-linecap:round;stroke-linejoin:round;stroke-miterlimit:10;" d="M425.622,261.657
			c0,0,34.055,8.185,39.526,9.889c5.471,1.704,12.383,23.571,12.383,23.571"/>
	</g>
	<g>
		<g>
			<polygon style="fill:#382632;" points="178.905,307.065 275.021,251.676 275.021,259.63 178.905,315.019 			"/>
			<polygon style="fill:#382632;" points="178.905,427.275 275.021,371.887 275.021,379.841 178.905,435.229 			"/>
			
				<line style="fill:none;stroke:#382632;stroke-linecap:round;stroke-linejoin:round;stroke-miterlimit:10;" x1="270.14" y1="258.997" x2="183.786" y2="430.349"/>
			
				<line style="fill:none;stroke:#382632;stroke-linecap:round;stroke-linejoin:round;stroke-miterlimit:10;" x1="272.58" y1="377.401" x2="182.566" y2="309.505"/>
		</g>
		<polygon style="fill:#8C6F74;" points="156.389,302.618 156.389,312.916 481.418,312.916 595.338,247.267 595.338,236.969 		"/>
		<polygon style="fill:#8C6F74;" points="270.309,236.969 156.389,302.618 481.418,302.618 595.338,236.969 		"/>
		<polyline style="fill:none;stroke:#FFFFFF;stroke-linecap:round;stroke-linejoin:round;stroke-miterlimit:10;" points="
			156.389,302.618 481.418,302.618 595.338,236.969 		"/>
		<g>
			<polygon style="fill:#382632;" points="491.566,307.065 587.681,251.676 587.681,259.63 491.566,315.019 			"/>
			<polygon style="fill:#382632;" points="491.566,427.275 587.681,371.887 587.681,379.841 491.566,435.229 			"/>
			
				<line style="fill:none;stroke:#382632;stroke-linecap:round;stroke-linejoin:round;stroke-miterlimit:10;" x1="582.801" y1="258.997" x2="496.447" y2="430.349"/>
			
				<line style="fill:none;stroke:#382632;stroke-linecap:round;stroke-linejoin:round;stroke-miterlimit:10;" x1="495.227" y1="309.505" x2="585.241" y2="377.401"/>
		</g>
	</g>
	<g>
		
			<line style="fill:none;stroke:#382632;stroke-linecap:round;stroke-linejoin:round;stroke-miterlimit:10;" x1="573.395" y1="386.952" x2="639.474" y2="386.952"/>
		<path style="fill:#577B7D;" d="M584.91,225.277c-1.728-2.111-3.758-3.952-5.779-5.785c-6.985-6.333-14.133-12.773-22.764-16.567
			c0.483,4.321,0.966,8.642,1.449,12.963c0.345,3.089,0.995,6.652,3.728,8.132c1.762,0.954,4.096,0.818,5.518,2.229
			c1.789,1.776,1.253,5.177,3.289,6.663c2.012,1.469,4.814-0.057,7.298,0.137c2.791,0.218,4.859,2.564,6.767,4.615
			c2.81,3.021,7.251,5.579,6.835-0.178C590.963,233.505,587.341,228.246,584.91,225.277z"/>
		<polygon style="fill:#8C6F74;" points="598.177,281.619 578.356,292.525 618.398,292.525 638.218,281.619 		"/>
		<polygon style="fill:#8C6F74;" points="578.356,292.525 583.506,352.597 616.658,352.597 633.068,343.568 638.218,281.619 
			618.398,292.525 		"/>
		<polyline style="fill:none;stroke:#FFFFFF;stroke-linecap:round;stroke-linejoin:round;stroke-miterlimit:10;" points="
			578.356,292.525 618.398,292.525 638.218,281.619 		"/>
		
			<line style="fill:none;stroke:#FFFFFF;stroke-linecap:round;stroke-linejoin:round;stroke-miterlimit:10;" x1="618.398" y1="292.525" x2="616.658" y2="352.597"/>
		<polyline style="fill:none;stroke:#382632;stroke-linecap:round;stroke-linejoin:round;stroke-miterlimit:10;" points="
			569.132,426.852 580.56,318.235 635.174,318.235 643.762,426.852 		"/>
		
			<line style="fill:none;stroke:#382632;stroke-linecap:round;stroke-linejoin:round;stroke-miterlimit:10;" x1="617.653" y1="318.235" x2="627.059" y2="426.852"/>
		<path style="fill:#73A3A5;" d="M623.704,228.45c6.939-10.051,18.257-16.961,30.368-18.541c0.275,4.304-2.942,8.01-6.279,10.742
			c-3.337,2.732-7.164,5.228-8.976,9.142c-1.31,2.831-1.515,6.31-3.773,8.463c-2.557,2.439-7.062,2.424-8.937,5.419
			c-0.778,1.242-0.92,2.761-1.205,4.199c-0.593,2.989-3.088,10.799-6.07,12.272c-3.759,1.857-2.922-5.082-2.822-8.097
			C616.286,243.671,618.936,235.356,623.704,228.45z"/>
		<path style="fill:#73A3A5;" d="M602.947,225.064c-4.991-10.408-13.566-19.055-23.932-24.133c0.314,2.73-0.559,5.436-1.023,8.145
			c-0.464,2.709-0.422,5.775,1.378,7.851c1.839,2.121,5.221,2.856,6.246,5.469c0.793,2.025-0.211,4.364,0.346,6.466
			c1.376,5.191,10.14,4.553,12.389,9.429c0.58,1.257,0.606,2.686,0.734,4.064c0.351,3.797,1.579,7.491,3.509,10.776
			c3.174,5.402,4.738,4.448,5.262-1.442C608.663,242.636,606.871,233.246,602.947,225.064z"/>
		<path style="fill:#73A3A5;" d="M589.645,250.373c-1.981-2.363-4.447-4.271-6.991-6.014c-7.965-5.455-16.912-9.473-26.282-11.801
			c-0.472,2.559,0.499,5.335,2.463,7.043c1.633,1.419,3.906,2.173,5.028,4.023c1.324,2.185,0.589,5.204,2.015,7.324
			c2.886,4.288,10.74,0.641,14.285,4.403c1.576,1.673,1.738,4.35,3.382,5.956c1.029,1.005,2.476,1.428,3.861,1.815
			c4.611,1.291,9.276,4.523,7.903-1.786C594.481,257.532,592.139,253.32,589.645,250.373z"/>
		<path style="fill:#577B7D;" d="M608.468,229.71c-0.633-3.495-1.261-7.124-0.363-10.56c0.854-3.267,3.003-6.023,5.188-8.598
			c6.184-7.289,13.087-13.967,20.576-19.907c-0.703,2.525-0.117,5.2,0.059,7.814c0.176,2.615-0.229,5.574-2.294,7.188
			c-1.216,0.95-2.843,1.285-3.991,2.315c-3.848,3.449,0.621,10.861-2.862,14.678c-2.31,2.532-7.153,2.141-8.552,5.27
			c-0.864,1.931,0.137,4.251-0.488,6.272c-0.647,2.091-3.2,4.687-4.902,5.674C609.076,237.325,609.034,232.842,608.468,229.71z"/>
		<path style="fill:none;stroke:#382632;stroke-linecap:round;stroke-linejoin:round;stroke-miterlimit:10;" d="M577.744,246.39
			c0,0,16.035,11.764,19.686,21.296c3.651,9.533,5.273,18.862,5.273,18.862"/>
		<path style="fill:none;stroke:#382632;stroke-linecap:round;stroke-linejoin:round;stroke-miterlimit:10;" d="M617.714,215.279
			c-2.362,7.282-4.435,14.658-6.213,22.104c-0.748,3.134-1.446,6.288-1.812,9.49c-0.358,3.133-0.397,6.294-0.436,9.447
			c-0.119,9.735-0.238,19.469-0.357,29.204"/>
		<path style="fill:none;stroke:#382632;stroke-linecap:round;stroke-linejoin:round;stroke-miterlimit:10;" d="M625.751,234.679
			c-4.483,11.586-7.708,23.646-9.836,35.885c-0.951,5.47-1.685,10.979-2.198,16.508"/>
		<path style="fill:none;stroke:#382632;stroke-linecap:round;stroke-linejoin:round;stroke-miterlimit:10;" d="M600.445,230.866
			c1.342,5.924,2.519,11.885,3.529,17.874c2.106,12.493,3.485,25.139,3.393,37.809"/>
		<path style="fill:none;stroke:#382632;stroke-linecap:round;stroke-linejoin:round;stroke-miterlimit:10;" d="M584.347,231.755
			c0.326,0.962,0.863,1.837,1.396,2.702c3.706,6.018,7.411,12.036,11.117,18.054c2.619,4.254,5.277,8.599,6.448,13.455
			c0.649,2.692,0.822,5.473,0.992,8.237c0.262,4.24,0.523,8.481,0.785,12.721"/>
	</g>
	<g>
		<polygon style="fill:#514350;" points="443.504,262.942 474.519,245.7 474.141,244.341 397.503,238.747 374.067,257.019 		"/>
		<polygon style="fill:#FFFAFF;" points="443.504,262.942 433.527,216.642 367.204,211.874 374.067,257.019 		"/>
		<polygon style="fill:#382632;" points="474.519,245.7 474.141,244.341 444.359,259.785 435.422,216.957 433.527,216.642 
			443.504,262.942 		"/>
		<circle style="fill:#F0F0F0;" cx="400.796" cy="238.747" r="5.272"/>
	</g>
	<g>
		<path style="fill:#FF848E;" d="M466.134,244.308c0,0-4.75,1.072-6.386,0.717c-2.345-0.509-4.196-2.816-4.546-3.043
			c-0.35-0.227-2.941,0.492-3.387,0.286c-0.446-0.206,0.474,2.548-0.234,3.001c-0.708,0.453-1.592-0.866-1.784-2.233
			c0,0,0.134,4.395-0.813,4.195s-1.327-1.978-1.327-1.978s-0.115,2.286-0.891,1.949c-0.776-0.337-1.652-3.97-1.652-3.97
			s0.212,1.463-1.168,0.652c-1.38-0.811,0.313-5.597,0.746-6.393c0.433-0.796,7.49-4.713,8.011-4.827
			c2.262-0.498,9.719,2.111,11.089,2.458C463.792,235.121,466.823,240.944,466.134,244.308z"/>
		<path style="fill:none;stroke:#382632;stroke-linecap:round;stroke-linejoin:round;stroke-miterlimit:10;" d="M449.143,236.214
			c0,0-2.153,1.242-2.874,1.791c-0.721,0.549-1.155,5.227-1.155,5.227"/>
		<path style="fill:none;stroke:#382632;stroke-linecap:round;stroke-linejoin:round;stroke-miterlimit:10;" d="M449.626,238.705
			c0,0-1.563,0.372-1.779,0.751c-0.412,0.722-0.19,5.798-0.19,5.798"/>
		<path style="fill:none;stroke:#382632;stroke-linecap:round;stroke-linejoin:round;stroke-miterlimit:10;" d="M451.844,239.523
			c0,0-1.748,0.292-1.895,0.776c-0.148,0.484-0.151,2.737-0.151,2.737"/>
		<path style="fill:#FF848E;" d="M463.792,235.121l45.309-3.016l12.709-7.463c0,0,9.886,14.276,3.185,19.105
			c-6.424,4.63-58.861,0.561-58.861,0.561L463.792,235.121z"/>
		
			<line style="fill:none;stroke:#382632;stroke-linecap:round;stroke-linejoin:round;stroke-miterlimit:10;" x1="509.101" y1="232.105" x2="515.973" y2="234.275"/>
	</g>
	<g>
		<path style="fill:none;stroke:#1E1609;stroke-linecap:round;stroke-linejoin:round;stroke-miterlimit:10;" d="M130.496,469.153
			c0,0,29.67-88.072,34.979-88.683c5.309-0.611,57.778,0,57.778,0"/>
		<path style="fill:none;stroke:#1E1609;stroke-linecap:round;stroke-linejoin:round;stroke-miterlimit:10;" d="M229.187,485.706
			c0,0-7.752-101.592-5.934-105.236c3.123-6.26,34.06-13.545,40.288-11.359c6.048,2.123,23.111,87.55,23.111,87.55"/>
		<path style="fill:#939CBB;" d="M212.634,348.913c0,0,9.326-0.528,16.24,0c21.181,1.618,42.509,5.77,42.162,12.805
			c-0.406,8.241-29.683,18.213-40.221,18.213c-8.988,0-43.47,0.274-53.941-1.018c-9.01-1.111-13.273-4.702-21.393-13.447
			c-8.12-8.745-18.114-82.138-16.553-89.321c1.562-7.183,15.616-7.808,23.111-7.183s28.934,5.934,38.515,20.925
			C210.136,304.877,223.253,332.361,212.634,348.913z"/>
		<path style="fill:none;stroke:#FFFFFF;stroke-linecap:round;stroke-linejoin:round;stroke-miterlimit:10;" d="M212.634,348.913
			c0,0-9.043,21.956,10.619,23.802s37.615-6.32,45.449-14.965"/>
	</g>
	<g>
		<polygon style="fill:#382632;" points="329.615,224.835 258.33,223.267 251.744,273.137 210.511,282.724 211.985,284.996 
			282.776,287.09 324.558,276.287 331.571,226.039 		"/>
		<polygon style="fill:#514350;" points="323.029,274.705 251.744,273.137 258.33,223.267 329.615,224.835 		"/>
		<polygon style="fill:#FFFAFF;" points="210.511,282.724 281.796,284.292 323.029,274.705 251.744,273.137 		"/>
		<g>
			<g>
				<path style="fill:#FFFAFF;" d="M260.078,225.306l67.262,1.48l-6.059,45.881l-67.262-1.479L260.078,225.306 M258.33,223.267
					l-6.586,49.87l71.285,1.568l6.586-49.87L258.33,223.267L258.33,223.267z"/>
			</g>
		</g>
	</g>
	<path style="fill:none;stroke:#1E1609;stroke-linecap:round;stroke-linejoin:round;stroke-miterlimit:10;" d="M359.947,426.976
		c0,0,6.979,2.151,18.458-2.754"/>
	<g>
		<path style="fill:#FF848E;" d="M348.167,400.547c0,0,12.504,21.447,18.209,23.644l-16.837,11.851l-17.501-24.143L348.167,400.547z
			"/>
		<g>
			<g>
				<path style="fill:#FF848E;" d="M210.372,226.364l-2.82,22.898c-0.586,4.221,3.676,8.159,7.816,8.988l0,0
					c4.782,0.957,9.305-2.599,9.556-7.513l1.248-21.51L210.372,226.364z"/>
			</g>
		</g>
		<path style="fill:#382632;" d="M218.931,235.161c0,0-2.617,12.493,5.993,15.577l0.852-14.686L218.931,235.161z"/>
		<path style="fill:#382632;" d="M326.798,292.521c-5.058,2.366-9.007-0.079-10.663-3.619c-1.656-3.54-0.391-6.835,4.666-9.201
			c5.058-2.366,9.792-1.329,11.448,2.211S331.856,290.155,326.798,292.521z"/>
		<path style="fill:#FF848E;" d="M156.867,282.876c0,0-10.343,13.477-7.731,21.104c2.612,7.627,24.116,3.777,24.116,3.777
			l5.128-15.104L156.867,282.876z"/>
		<path style="fill:#363039;" d="M172.015,334.173l59.028-11.805l4.762,10.264c0,0,39.162-12.512,54.516-12.953
			c10.908-0.314,66.472,87.607,66.472,87.607l-23.186,19.925l-49.433-73.784c0,0-36.974,14.317-55.553,16.362
			c-8.771,0.966-32.338,7.239-42.975-1.074C172.17,358.183,172.015,334.173,172.015,334.173z"/>
		<g>
			<g>
				<path style="fill:#FF848E;" d="M237.332,226.21c0.054,0.938,0.047,1.873-0.03,2.806c-0.128,1.561-0.449,3.104-0.973,4.538
					c-1.369,3.778-4.113,6.835-8.308,7.783c-4.605,1.044-9.408-1.135-12.39-4.833c-5.403-6.683-8.008-20.196-0.173-25.898
					c0.873-0.639,1.796-1.104,2.755-1.421c4.516-1.486,9.673,0.443,13.22,3.806C234.982,216.355,237.024,221.262,237.332,226.21z"/>
			</g>
		</g>
		<path style="fill:#FF848E;" d="M236.345,230.509c0.681-0.142,1.328-0.445,1.874-0.876c0.056-0.044,0.113-0.093,0.135-0.16
			c0.033-0.101-0.023-0.208-0.077-0.3c-0.646-1.11-1.174-2.289-1.573-3.51L236.345,230.509z"/>
		<path style="fill:#7E98BA;" d="M174,297.921c0,0-2.508,30.924-1.986,36.253c0,0,43.566,3.239,59.028-11.805
			c0,0,1.324-31.412,5.932-35.533l12.781,17.178l22.648-18.423c0,0-19.002-27.996-25.584-33.742
			c-6.582-5.746-33.542-7.417-45.606-6.634c-12.064,0.783-17.17,3.619-21.676,7.051c-4.661,3.551-22.671,30.611-22.671,30.611
			S168.881,296.772,174,297.921z"/>
		<path style="fill:none;stroke:#382632;stroke-linecap:round;stroke-linejoin:round;stroke-miterlimit:10;" d="M231.195,316.977
			c0,0-24.128,14.616-59.143,10.534"/>
		<path style="fill:none;stroke:#382632;stroke-linecap:round;stroke-linejoin:round;stroke-miterlimit:10;" d="M183.786,260.282
			c0,0-8.502,20.075-9.786,37.639"/>
		<path style="fill:#FF848E;" d="M280.663,296.84l35.41-8.96c0,0,0.856-4.007,1.374-5.043c0.518-1.037,5.739-2.912,7.055-2.553
			c1.316,0.358,1.675,1.634,1.675,1.634s3.356-2.463,4.612-1.885c1.256,0.578-0.426,4.674-0.426,4.674s0.423,1.764,0.7,2.546
			c0.277,0.782,1.354,2.018,0.836,3.054c-0.518,1.037-5.958,5.443-8.11,5.563c-2.153,0.12-4.026,0.081-4.026,0.081
			s-43.263,21.862-49.623,21.001c-6.36-0.861-16.99-15.699-16.99-15.699l19.254-15.662L280.663,296.84z"/>
		
			<line style="fill:none;stroke:#382632;stroke-linecap:round;stroke-linejoin:round;stroke-miterlimit:10;" x1="280.663" y1="296.84" x2="278.39" y2="302.067"/>
		
			<line style="fill:none;stroke:#382632;stroke-linecap:round;stroke-linejoin:round;stroke-miterlimit:10;" x1="236.975" y1="286.836" x2="232.253" y2="279.077"/>
		
			<line style="fill:none;stroke:#382632;stroke-linecap:round;stroke-linejoin:round;stroke-miterlimit:10;" x1="244.632" y1="297.127" x2="267.049" y2="277.857"/>
		<path style="fill:#363039;" d="M223.008,221.81c0,0-1.828,18.856-14.398,18.856c-4.497,0-5.157-27.566-4.274-29.443
			c2.008-4.27,6.821-6.542,15.872-6.985c5.315-0.26,14.428,0.797,14.428,0.797s1.827-3.426,3.19-3.101
			c2.599,0.62,4.282,11.547-1.48,13.083c0,0,2.763,1.063,2.018,2.245C237.619,218.445,233.206,220.923,223.008,221.81z"/>
		<g>
			<g>
				<path style="fill:#FF848E;" d="M225.12,229.747c-1.463,0.908-3.648,0.908-5.114-0.019c-1.466-0.926-2.43-2.732-2.439-4.57
					c-0.008-1.649,0.801-3.336,2.172-4.026c1.371-0.691,3.425-0.156,4.12,1.315L225.12,229.747z"/>
			</g>
		</g>
		<path style="fill:none;stroke:#382632;stroke-linecap:round;stroke-linejoin:round;stroke-miterlimit:10;" d="M222.674,227.62
			c-1.668-0.443-2.744-1.845-2.402-3.131c0.256-0.965,1.237-1.59,2.414-1.656"/>
		<g>
			<path style="fill:#382632;" d="M232.474,225.441c0.098,0.539,0.614,0.897,1.153,0.799c0.539-0.098,0.897-0.614,0.799-1.153
				c-0.098-0.539-0.614-0.897-1.153-0.799C232.734,224.386,232.376,224.902,232.474,225.441z"/>
		</g>
		<path style="fill:none;stroke:#382632;stroke-linecap:round;stroke-linejoin:round;stroke-miterlimit:10;" d="M236.762,225.414
			c0.399,1.221,0.869,2.648,1.514,3.758c0.054,0.092,0.11,0.199,0.077,0.3c-0.022,0.067-0.079,0.117-0.135,0.16
			c-0.546,0.431-1.193,0.733-1.874,0.876"/>
		<path style="fill:#F2727C;" d="M232.175,230.299c0.192,1.341-1.228,2.653-3.171,2.931c-1.943,0.278-3.674-0.583-3.866-1.924
			c-0.192-1.341,1.228-2.653,3.171-2.931C230.252,228.097,231.983,228.958,232.175,230.299z"/>
		<g>
			<g>
				<g>
					<path style="fill:#363039;" d="M228.772,224.197c-0.146-0.214,0.404-1.864,1.534-2.484c1.128-0.636,2.065,0.187,2.004,0.516
						c-0.041,0.367-0.873,0.217-1.805,0.758C229.567,223.487,228.912,224.464,228.772,224.197z"/>
				</g>
			</g>
		</g>
		
			<line style="fill:none;stroke:#FFFFFF;stroke-linecap:round;stroke-linejoin:round;stroke-miterlimit:10;" x1="290.38" y1="362.689" x2="280.663" y2="347.106"/>
		
			<line style="fill:none;stroke:#FFFFFF;stroke-linecap:round;stroke-linejoin:round;stroke-miterlimit:10;" x1="327.645" y1="418.31" x2="350.872" y2="398.067"/>
		<g>
			<path style="fill:#FFFAFF;" d="M367.118,421.928c0,0,9.677-2.167,15.15-5.199c5.743-3.183,8.956,1.375,9.781,3.276l-36.314,25.56
				l-6.973-10.717l11.185-7.873c0,0-3.865-2.604-4.188-3.041c-0.323-0.437,7.427-5.392,8.25-5.706
				C364.833,417.915,367.118,421.928,367.118,421.928z"/>
			<polygon style="fill:#7E98BA;" points="392.049,420.005 355.736,445.566 358.528,449.169 394.841,423.608 			"/>
			<path style="fill:none;stroke:#1E1609;stroke-linecap:round;stroke-linejoin:round;stroke-miterlimit:10;" d="M379.522,418.048
				c0,0-2.613,6.815,0.145,10.672"/>
		</g>
		<path style="fill:none;stroke:#FFFFFF;stroke-linecap:round;stroke-linejoin:round;stroke-miterlimit:10;" d="M284.174,353.426
			c0,0-11.971,4.487-18.296,6.573"/>
		<path style="fill:none;stroke:#FFFFFF;stroke-linecap:round;stroke-linejoin:round;stroke-miterlimit:10;" d="M235.805,332.632
			c0,0-5.889,1.364-10.797,0"/>
		<path style="fill:none;stroke:#382632;stroke-linecap:round;stroke-linejoin:round;stroke-miterlimit:10;" d="M230.17,236.884
			c0.852,0.496,1.879,0.682,2.851,0.518"/>
	</g>
	<path style="fill:#939CBB;" d="M217.743,373.204c0,0-30.397,7-40.868,5.709c-9.01-1.111-13.273-4.702-21.393-13.447
		c-8.12-8.745-18.114-82.138-16.553-89.321c1.562-7.183,15.616-7.808,23.111-7.183s28.934,5.934,38.515,20.925
		C210.136,304.877,232.253,354.521,217.743,373.204z"/>
	<g>
		<g>
			<path style="fill:none;stroke:#1E1609;stroke-linecap:round;stroke-linejoin:round;stroke-miterlimit:10;" d="M350.239,469.153
				c0,0,29.67-88.072,34.979-88.683c5.309-0.611,57.778,0,57.778,0"/>
			<path style="fill:none;stroke:#1E1609;stroke-linecap:round;stroke-linejoin:round;stroke-miterlimit:10;" d="M448.93,485.706
				c0,0-7.752-101.592-5.934-105.236c3.123-6.26,34.06-13.545,40.288-11.359c6.049,2.123,23.111,87.55,23.111,87.55"/>
			<path style="fill:#939CBB;" d="M432.378,348.913c0,0,9.326-0.528,16.24,0c21.181,1.618,42.509,5.77,42.162,12.805
				c-0.406,8.241-29.683,18.213-40.221,18.213c-8.988,0-43.47,0.274-53.941-1.018c-9.01-1.111-13.273-4.702-21.393-13.447
				c-8.12-8.745-18.114-82.138-16.552-89.321c1.561-7.183,15.616-7.808,23.111-7.183c7.496,0.625,28.934,5.934,38.515,20.925
				C429.879,304.877,442.996,332.361,432.378,348.913z"/>
			<path style="fill:none;stroke:#FFFFFF;stroke-linecap:round;stroke-linejoin:round;stroke-miterlimit:10;" d="M432.378,348.913
				c0,0-9.043,21.956,10.619,23.802c19.662,1.846,37.615-6.32,45.449-14.965"/>
		</g>
		<path style="fill:#939CBB;" d="M437.486,373.204c0,0-30.397,7-40.868,5.709c-9.01-1.111-13.273-4.702-21.393-13.447
			c-8.12-8.745-18.114-82.138-16.552-89.321c1.561-7.183,15.616-7.808,23.111-7.183c7.496,0.625,28.934,5.934,38.515,20.925
			C429.879,304.877,451.996,354.521,437.486,373.204z"/>
	</g>
	<g>
		<g>
			<polygon style="fill:#382632;" points="338.986,44.888 128.916,44.888 138.916,27.328 328.986,27.328 			"/>
			<g>
				
					<line style="fill:none;stroke:#382632;stroke-linecap:round;stroke-linejoin:round;stroke-miterlimit:10;" x1="170.388" y1="27.328" x2="170.388" y2="0"/>
				
					<line style="fill:none;stroke:#382632;stroke-linecap:round;stroke-linejoin:round;stroke-miterlimit:10;" x1="297.515" y1="27.328" x2="297.515" y2="0"/>
			</g>
		</g>
		<g>
			<polygon style="fill:#382632;" points="621.084,44.888 411.013,44.888 421.013,27.328 611.084,27.328 			"/>
			<g>
				
					<line style="fill:none;stroke:#382632;stroke-linecap:round;stroke-linejoin:round;stroke-miterlimit:10;" x1="452.485" y1="27.328" x2="452.485" y2="0"/>
				
					<line style="fill:none;stroke:#382632;stroke-linecap:round;stroke-linejoin:round;stroke-miterlimit:10;" x1="579.612" y1="27.328" x2="579.612" y2="0"/>
			</g>
		</g>
	</g>
</g>
</svg>
