<svg width="392" height="51" viewBox="0 0 392 51" fill="none" xmlns="http://www.w3.org/2000/svg">
<path d="M7.032 32.672H18.072V38H0.312V4.496H7.032V32.672ZM20.6152 24.608C20.6152 21.92 21.1432 19.536 22.1992 17.456C23.2873 15.376 24.7433 13.776 26.5673 12.656C28.4233 11.536 30.4873 10.976 32.7593 10.976C34.7433 10.976 36.4713 11.376 37.9433 12.176C39.4473 12.976 40.6473 13.984 41.5433 15.2V11.408H48.3113V38H41.5433V34.112C40.6793 35.36 39.4793 36.4 37.9433 37.232C36.4393 38.032 34.6953 38.432 32.7113 38.432C30.4713 38.432 28.4233 37.856 26.5673 36.704C24.7433 35.552 23.2873 33.936 22.1992 31.856C21.1432 29.744 20.6152 27.328 20.6152 24.608ZM41.5433 24.704C41.5433 23.072 41.2233 21.68 40.5833 20.528C39.9433 19.344 39.0793 18.448 37.9913 17.84C36.9033 17.2 35.7353 16.88 34.4873 16.88C33.2393 16.88 32.0873 17.184 31.0312 17.792C29.9753 18.4 29.1113 19.296 28.4393 20.48C27.7993 21.632 27.4793 23.008 27.4793 24.608C27.4793 26.208 27.7993 27.616 28.4393 28.832C29.1113 30.016 29.9753 30.928 31.0312 31.568C32.1193 32.208 33.2713 32.528 34.4873 32.528C35.7353 32.528 36.9033 32.224 37.9913 31.616C39.0793 30.976 39.9433 30.08 40.5833 28.928C41.2233 27.744 41.5433 26.336 41.5433 24.704ZM62.6985 16.928V29.792C62.6985 30.688 62.9065 31.344 63.3225 31.76C63.7705 32.144 64.5065 32.336 65.5305 32.336H68.6505V38H64.4265C58.7625 38 55.9305 35.248 55.9305 29.744V16.928H52.7625V11.408H55.9305V4.832H62.6985V11.408H68.6505V16.928H62.6985ZM98.2039 24.128C98.2039 25.088 98.1399 25.952 98.0119 26.72H78.5719C78.7319 28.64 79.4039 30.144 80.5879 31.232C81.7719 32.32 83.2279 32.864 84.9559 32.864C87.4519 32.864 89.2279 31.792 90.2839 29.648H97.5319C96.7639 32.208 95.2919 34.32 93.1159 35.984C90.9399 37.616 88.2679 38.432 85.0999 38.432C82.5399 38.432 80.2359 37.872 78.1879 36.752C76.1719 35.6 74.5879 33.984 73.4359 31.904C72.3159 29.824 71.7559 27.424 71.7559 24.704C71.7559 21.952 72.3159 19.536 73.4359 17.456C74.5559 15.376 76.1239 13.776 78.1399 12.656C80.1559 11.536 82.4759 10.976 85.0999 10.976C87.6279 10.976 89.8839 11.52 91.8679 12.608C93.8839 13.696 95.4359 15.248 96.5239 17.264C97.6439 19.248 98.2039 21.536 98.2039 24.128ZM91.2439 22.208C91.2119 20.48 90.5879 19.104 89.3719 18.08C88.1559 17.024 86.6679 16.496 84.9079 16.496C83.2439 16.496 81.8359 17.008 80.6839 18.032C79.5639 19.024 78.8759 20.416 78.6199 22.208H91.2439ZM113.285 38.432C111.109 38.432 109.157 38.048 107.429 37.28C105.701 36.48 104.325 35.408 103.301 34.064C102.309 32.72 101.765 31.232 101.669 29.6H108.437C108.565 30.624 109.061 31.472 109.925 32.144C110.821 32.816 111.925 33.152 113.237 33.152C114.517 33.152 115.509 32.896 116.213 32.384C116.949 31.872 117.317 31.216 117.317 30.416C117.317 29.552 116.869 28.912 115.973 28.496C115.109 28.048 113.717 27.568 111.797 27.056C109.813 26.576 108.181 26.08 106.901 25.568C105.653 25.056 104.565 24.272 103.637 23.216C102.741 22.16 102.293 20.736 102.293 18.944C102.293 17.472 102.709 16.128 103.541 14.912C104.405 13.696 105.621 12.736 107.189 12.032C108.789 11.328 110.661 10.976 112.805 10.976C115.973 10.976 118.501 11.776 120.389 13.376C122.277 14.944 123.317 17.072 123.509 19.76H117.077C116.981 18.704 116.533 17.872 115.733 17.264C114.965 16.624 113.925 16.304 112.613 16.304C111.397 16.304 110.453 16.528 109.781 16.976C109.141 17.424 108.821 18.048 108.821 18.848C108.821 19.744 109.269 20.432 110.165 20.912C111.061 21.36 112.453 21.824 114.341 22.304C116.261 22.784 117.845 23.28 119.093 23.792C120.341 24.304 121.413 25.104 122.309 26.192C123.237 27.248 123.717 28.656 123.749 30.416C123.749 31.952 123.317 33.328 122.453 34.544C121.621 35.76 120.405 36.72 118.805 37.424C117.237 38.096 115.397 38.432 113.285 38.432ZM137.089 16.928V29.792C137.089 30.688 137.297 31.344 137.713 31.76C138.161 32.144 138.897 32.336 139.921 32.336H143.041V38H138.817C133.153 38 130.321 35.248 130.321 29.744V16.928H127.153V11.408H130.321V4.832H137.089V11.408H143.041V16.928H137.089Z" fill="#F8F8FD"/>
<path d="M162.72 8.24C161.504 8.24 160.496 7.872 159.696 7.136C158.928 6.368 158.544 5.424 158.544 4.304C158.544 3.184 158.928 2.256 159.696 1.52C160.496 0.751998 161.504 0.367998 162.72 0.367998C163.904 0.367998 164.88 0.751998 165.648 1.52C166.416 2.256 166.8 3.184 166.8 4.304C166.8 5.424 166.416 6.368 165.648 7.136C164.88 7.872 163.904 8.24 162.72 8.24ZM166.032 42.368C166.032 45.312 165.296 47.424 163.824 48.704C162.384 50.016 160.304 50.672 157.584 50.672H154.608V44.96H156.528C157.552 44.96 158.272 44.752 158.688 44.336C159.104 43.952 159.312 43.312 159.312 42.416V11.408H166.032V42.368ZM184.479 38.432C181.919 38.432 179.615 37.872 177.567 36.752C175.519 35.6 173.903 33.984 172.719 31.904C171.567 29.824 170.991 27.424 170.991 24.704C170.991 21.984 171.583 19.584 172.767 17.504C173.983 15.424 175.631 13.824 177.711 12.704C179.791 11.552 182.111 10.976 184.671 10.976C187.231 10.976 189.551 11.552 191.631 12.704C193.711 13.824 195.343 15.424 196.527 17.504C197.743 19.584 198.351 21.984 198.351 24.704C198.351 27.424 197.727 29.824 196.479 31.904C195.263 33.984 193.599 35.6 191.487 36.752C189.407 37.872 187.071 38.432 184.479 38.432ZM184.479 32.576C185.695 32.576 186.831 32.288 187.887 31.712C188.975 31.104 189.839 30.208 190.479 29.024C191.119 27.84 191.439 26.4 191.439 24.704C191.439 22.176 190.767 20.24 189.423 18.896C188.111 17.52 186.495 16.832 184.575 16.832C182.655 16.832 181.039 17.52 179.727 18.896C178.447 20.24 177.807 22.176 177.807 24.704C177.807 27.232 178.431 29.184 179.679 30.56C180.959 31.904 182.559 32.576 184.479 32.576ZM210.001 15.296C210.865 14.016 212.049 12.976 213.553 12.176C215.089 11.376 216.833 10.976 218.785 10.976C221.057 10.976 223.105 11.536 224.929 12.656C226.785 13.776 228.241 15.376 229.297 17.456C230.385 19.504 230.929 21.888 230.929 24.608C230.929 27.328 230.385 29.744 229.297 31.856C228.241 33.936 226.785 35.552 224.929 36.704C223.105 37.856 221.057 38.432 218.785 38.432C216.801 38.432 215.057 38.048 213.553 37.28C212.081 36.48 210.897 35.456 210.001 34.208V38H203.281V2.48H210.001V15.296ZM224.065 24.608C224.065 23.008 223.729 21.632 223.057 20.48C222.417 19.296 221.553 18.4 220.465 17.792C219.409 17.184 218.257 16.88 217.009 16.88C215.793 16.88 214.641 17.2 213.553 17.84C212.497 18.448 211.633 19.344 210.961 20.528C210.321 21.712 210.001 23.104 210.001 24.704C210.001 26.304 210.321 27.696 210.961 28.88C211.633 30.064 212.497 30.976 213.553 31.616C214.641 32.224 215.793 32.528 217.009 32.528C218.257 32.528 219.409 32.208 220.465 31.568C221.553 30.928 222.417 30.016 223.057 28.832C223.729 27.648 224.065 26.24 224.065 24.608ZM245.988 38.432C243.812 38.432 241.86 38.048 240.132 37.28C238.404 36.48 237.028 35.408 236.004 34.064C235.012 32.72 234.468 31.232 234.372 29.6H241.14C241.268 30.624 241.764 31.472 242.628 32.144C243.524 32.816 244.628 33.152 245.94 33.152C247.22 33.152 248.212 32.896 248.916 32.384C249.652 31.872 250.02 31.216 250.02 30.416C250.02 29.552 249.572 28.912 248.676 28.496C247.812 28.048 246.42 27.568 244.5 27.056C242.516 26.576 240.884 26.08 239.604 25.568C238.356 25.056 237.268 24.272 236.34 23.216C235.444 22.16 234.996 20.736 234.996 18.944C234.996 17.472 235.412 16.128 236.244 14.912C237.108 13.696 238.324 12.736 239.892 12.032C241.492 11.328 243.364 10.976 245.508 10.976C248.676 10.976 251.204 11.776 253.092 13.376C254.98 14.944 256.02 17.072 256.212 19.76H249.78C249.684 18.704 249.236 17.872 248.436 17.264C247.668 16.624 246.628 16.304 245.316 16.304C244.1 16.304 243.156 16.528 242.484 16.976C241.844 17.424 241.524 18.048 241.524 18.848C241.524 19.744 241.972 20.432 242.868 20.912C243.764 21.36 245.156 21.824 247.044 22.304C248.964 22.784 250.548 23.28 251.796 23.792C253.044 24.304 254.116 25.104 255.012 26.192C255.94 27.248 256.42 28.656 256.452 30.416C256.452 31.952 256.02 33.328 255.156 34.544C254.324 35.76 253.108 36.72 251.508 37.424C249.94 38.096 248.1 38.432 245.988 38.432ZM285.214 38.432C282.654 38.432 280.35 37.872 278.302 36.752C276.254 35.6 274.638 33.984 273.454 31.904C272.302 29.824 271.726 27.424 271.726 24.704C271.726 21.984 272.318 19.584 273.502 17.504C274.718 15.424 276.366 13.824 278.446 12.704C280.526 11.552 282.846 10.976 285.406 10.976C287.966 10.976 290.286 11.552 292.366 12.704C294.446 13.824 296.078 15.424 297.262 17.504C298.478 19.584 299.086 21.984 299.086 24.704C299.086 27.424 298.462 29.824 297.214 31.904C295.998 33.984 294.334 35.6 292.222 36.752C290.142 37.872 287.806 38.432 285.214 38.432ZM285.214 32.576C286.43 32.576 287.566 32.288 288.622 31.712C289.71 31.104 290.574 30.208 291.214 29.024C291.854 27.84 292.174 26.4 292.174 24.704C292.174 22.176 291.502 20.24 290.158 18.896C288.846 17.52 287.23 16.832 285.31 16.832C283.39 16.832 281.774 17.52 280.462 18.896C279.182 20.24 278.542 22.176 278.542 24.704C278.542 27.232 279.166 29.184 280.414 30.56C281.694 31.904 283.294 32.576 285.214 32.576ZM310.735 15.248C311.599 14.032 312.783 13.024 314.287 12.224C315.823 11.392 317.567 10.976 319.519 10.976C321.791 10.976 323.839 11.536 325.663 12.656C327.519 13.776 328.975 15.376 330.031 17.456C331.119 19.504 331.663 21.888 331.663 24.608C331.663 27.328 331.119 29.744 330.031 31.856C328.975 33.936 327.519 35.552 325.663 36.704C323.839 37.856 321.791 38.432 319.519 38.432C317.567 38.432 315.839 38.032 314.335 37.232C312.863 36.432 311.663 35.424 310.735 34.208V50.672H304.015V11.408H310.735V15.248ZM324.799 24.608C324.799 23.008 324.463 21.632 323.791 20.48C323.151 19.296 322.287 18.4 321.199 17.792C320.143 17.184 318.991 16.88 317.743 16.88C316.527 16.88 315.375 17.2 314.287 17.84C313.231 18.448 312.367 19.344 311.695 20.528C311.055 21.712 310.735 23.104 310.735 24.704C310.735 26.304 311.055 27.696 311.695 28.88C312.367 30.064 313.231 30.976 314.287 31.616C315.375 32.224 316.527 32.528 317.743 32.528C318.991 32.528 320.143 32.208 321.199 31.568C322.287 30.928 323.151 30.016 323.791 28.832C324.463 27.648 324.799 26.24 324.799 24.608ZM361.266 24.128C361.266 25.088 361.202 25.952 361.074 26.72H341.634C341.794 28.64 342.466 30.144 343.65 31.232C344.834 32.32 346.29 32.864 348.018 32.864C350.514 32.864 352.29 31.792 353.346 29.648H360.594C359.826 32.208 358.354 34.32 356.178 35.984C354.002 37.616 351.33 38.432 348.162 38.432C345.602 38.432 343.298 37.872 341.25 36.752C339.234 35.6 337.65 33.984 336.498 31.904C335.378 29.824 334.818 27.424 334.818 24.704C334.818 21.952 335.378 19.536 336.498 17.456C337.618 15.376 339.186 13.776 341.202 12.656C343.218 11.536 345.538 10.976 348.162 10.976C350.69 10.976 352.946 11.52 354.93 12.608C356.946 13.696 358.498 15.248 359.586 17.264C360.706 19.248 361.266 21.536 361.266 24.128ZM354.306 22.208C354.274 20.48 353.65 19.104 352.434 18.08C351.218 17.024 349.73 16.496 347.97 16.496C346.306 16.496 344.898 17.008 343.746 18.032C342.626 19.024 341.938 20.416 341.682 22.208H354.306ZM380.907 11.024C384.075 11.024 386.635 12.032 388.587 14.048C390.539 16.032 391.515 18.816 391.515 22.4V38H384.795V23.312C384.795 21.2 384.267 19.584 383.211 18.464C382.155 17.312 380.715 16.736 378.891 16.736C377.035 16.736 375.563 17.312 374.475 18.464C373.419 19.584 372.891 21.2 372.891 23.312V38H366.171V11.408H372.891V14.72C373.787 13.568 374.923 12.672 376.299 12.032C377.707 11.36 379.243 11.024 380.907 11.024Z" fill="#646CFF"/>
</svg>
